<?xml version="1.0" encoding="UTF-8"?>
<svg width="32" height="32" version="1.1" viewBox="0 0 8.4667 8.4667" xmlns="http://www.w3.org/2000/svg">
 <defs>
  <clipPath id="clipPath4260">
   <path transform="translate(-316.36 -1622.9)" d="m0 2592h2592v-2592h-2592z"/>
  </clipPath>
  <clipPath id="clipPath4262">
   <path transform="translate(-321.2 -1622.9)" d="m0 2592h2592v-2592h-2592z"/>
  </clipPath>
  <clipPath id="clipPath4258">
   <path transform="translate(-332.16 -1617)" d="m0 2592h2592v-2592h-2592z"/>
  </clipPath>
 </defs>
 <g transform="translate(5.6192 -4.6997)">
  <path transform="matrix(.35278 0 0 -.35278 2.437 13.104)" d="m0 0h-21.673c-0.544 0-0.985 0.441-0.985 0.985v21.673c0 0.544 0.441 0.986 0.985 0.986h21.673c0.544 0 0.985-0.442 0.985-0.986v-21.673c0-0.544-0.441-0.985-0.985-0.985" clip-path="url(#clipPath4258)" fill="#fddc63"/>
  <path transform="matrix(.35278 0 0 -.35278 -3.1391 11.018)" d="m0 0v9.229l-1.524-1.591-1.101 1.625 3.015 2.557h1.879v-11.82z" clip-path="url(#clipPath4260)" fill="#140e0c"/>
  <path transform="matrix(.35278 0 0 -.35278 -1.4307 11.018)" d="m0 0v1.829c2.557 2.642 4.386 5.064 4.386 6.588 0 1.05-0.575 1.71-1.659 1.71-0.864 0-1.694-0.423-2.32-0.915l-0.187 2.067c0.932 0.44 1.999 0.711 3.184 0.711 1.965 0 3.319-1.202 3.319-3.167 0-2.168-2.303-5.114-4.233-7.045h4.369v-1.778z" clip-path="url(#clipPath4262)" fill="#140e0c"/>
 </g>
</svg>
