<?xml version="1.0" encoding="UTF-8"?>
<svg width="32" height="32" version="1.1" viewBox="0 0 8.4667 8.4667" xmlns="http://www.w3.org/2000/svg">
 <defs>
  <clipPath id="clipPath4266">
   <path transform="translate(-316.22 -1587.3)" d="m0 2592h2592v-2592h-2592z"/>
  </clipPath>
  <clipPath id="clipPath4268">
   <path transform="translate(-323.69 -1587.2)" d="m0 2592h2592v-2592h-2592z"/>
  </clipPath>
  <clipPath id="clipPath4264">
   <path transform="translate(-332.04 -1581.4)" d="m0 2592h2592v-2592h-2592z"/>
  </clipPath>
 </defs>
 <g transform="translate(10.911 -4.4351)">
  <path transform="matrix(.35278 0 0 -.35278 -2.8547 12.839)" d="m0 0h-21.673c-0.544 0-0.985 0.441-0.985 0.985v21.673c0 0.545 0.441 0.986 0.985 0.986h21.673c0.544 0 0.985-0.441 0.985-0.986v-21.673c0-0.544-0.441-0.985-0.985-0.985" clip-path="url(#clipPath4264)" fill="#9991cd"/>
  <path transform="matrix(.35278 0 0 -.35278 -8.4337 10.753)" d="m0 0v9.229l-1.524-1.592-1.101 1.626 3.014 2.557h1.88v-11.82z" clip-path="url(#clipPath4266)" fill="#140e0c"/>
  <path transform="matrix(.35278 0 0 -.35278 -5.7992 10.813)" d="m0 0c-1.321 0-2.252 0.271-2.812 0.491l0.136 1.931c0.61-0.305 1.423-0.627 2.371-0.627 1.185 0 2.134 0.728 2.134 1.88 0 1.1-0.762 1.727-2.083 1.727h-1.016v1.677h0.643c1.457 0 2.422 0.559 2.422 1.676 0 1.05-0.83 1.609-1.947 1.609-0.712 0-1.542-0.237-2.202-0.593l-0.152 1.829c0.897 0.356 1.862 0.559 2.811 0.559 2.049 0 3.759-0.762 3.759-2.997 0-1.626-1.134-2.575-2.286-2.744v-0.034c1.152-0.152 2.405-0.999 2.405-2.828 0-2.134-1.558-3.556-4.183-3.556" clip-path="url(#clipPath4268)" fill="#140e0c"/>
 </g>
</svg>
