<?xml version="1.0" encoding="UTF-8"?>
<svg width="32" height="32" version="1.1" viewBox="0 0 8.4667 8.4667" xmlns="http://www.w3.org/2000/svg">
 <defs>
  <clipPath id="clipPath4222">
   <path transform="translate(-320.81 -2000.8)" d="m0 2592h2592v-2592h-2592z"/>
  </clipPath>
  <clipPath id="clipPath4220">
   <path transform="translate(-333.18 -2007)" d="m0 2592h2592v-2592h-2592z"/>
  </clipPath>
 </defs>
 <g transform="translate(10.117 -.73078)">
  <path transform="matrix(.35278 0 0 -.35278 -1.7134 4.9643)" d="m0 0c0-6.529-5.293-11.821-11.822-11.821s-11.821 5.292-11.821 11.821 5.292 11.822 11.821 11.822 11.822-5.293 11.822-11.822" clip-path="url(#clipPath4220)" fill="#127bca"/>
  <path transform="matrix(.35278 0 0 -.35278 -6.078 7.1493)" d="m0 0c-1.202 0-2.015 0.271-2.642 0.525l0.102 1.846c0.474-0.254 1.304-0.576 2.185-0.576 1.371 0 2.201 0.932 2.201 2.219 0 1.473-1.016 2.151-2.439 2.151-0.745 0-1.286-0.17-1.863-0.356v6.181h6.131v-1.711h-4.098v-2.624c0.305 0.084 0.762 0.152 1.219 0.152 1.965 0 3.438-1.372 3.438-3.624 0-2.693-1.711-4.183-4.234-4.183" clip-path="url(#clipPath4222)" fill="#fff"/>
 </g>
</svg>
