<?xml version="1.0" encoding="UTF-8"?>
<svg width="32" height="32" version="1.1" viewBox="0 0 8.4667 8.4667" xmlns="http://www.w3.org/2000/svg">
 <defs>
  <clipPath id="clipPath4224">
   <path transform="translate(-321.36 -1847.6)" d="m0 2592h2592v-2592h-2592z"/>
  </clipPath>
  <clipPath id="clipPath4226">
   <path transform="translate(-321.42 -1840.1)" d="m0 2592h2592v-2592h-2592z"/>
  </clipPath>
 </defs>
 <g transform="translate(5.6192 -2.0537)">
  <path transform="matrix(.35278 0 0 -.35278 -1.3861 2.1167)" d="m0 0c-6.529 0-11.821-5.293-11.821-11.822s5.292-11.821 11.821-11.821 11.822 5.292 11.822 11.821-5.293 11.822-11.822 11.822m0-1.651c2.717 0 5.271-1.058 7.192-2.979s2.978-4.475 2.978-7.192c0-2.716-1.057-5.27-2.978-7.191s-4.475-2.979-7.192-2.979c-2.716 0-5.271 1.058-7.191 2.979-1.921 1.921-2.979 4.475-2.979 7.191 0 2.717 1.058 5.271 2.979 7.192 1.92 1.921 4.475 2.979 7.191 2.979" clip-path="url(#clipPath4224)" fill="#75c92b"/>
  <path transform="matrix(.35278 0 0 -.35278 -1.365 4.7789)" d="m0 0h-0.034l-1.575-5.267h3.031zm2.692-9.839-0.778 2.794h-3.997l-0.847-2.794h-2.286l3.946 11.82h2.574l3.81-11.82z" clip-path="url(#clipPath4226)" fill="#fff"/>
 </g>
</svg>
