<?xml version="1.0" encoding="UTF-8"?>
<svg width="32" height="32" version="1.1" viewBox="0 0 8.4667 8.4667" xmlns="http://www.w3.org/2000/svg">
 <defs>
  <clipPath id="clipPath4238">
   <path transform="translate(-469.88 -1849.7)" d="m0 2592h2592v-2592h-2592z"/>
  </clipPath>
  <clipPath id="clipPath4236">
   <path transform="translate(-464.77 -1857)" d="m0 2592h2592v-2592h-2592z"/>
  </clipPath>
  <clipPath id="clipPath4234">
   <path transform="translate(-468.1 -1865.7)" d="m0 2592h2592v-2592h-2592z"/>
  </clipPath>
 </defs>
 <g transform="translate(9.588 -3.9058)">
  <path transform="matrix(.35278 0 0 -.35278 -5.3545 3.9688)" d="m0 0c-6.529 0-11.822-5.292-11.822-11.821 0-6.53 5.293-11.822 11.822-11.822s11.821 5.292 11.821 11.822c0 6.529-5.292 11.821-11.821 11.821m0-1.651c2.716 0 5.271-1.058 7.191-2.979 1.921-1.921 2.979-4.475 2.979-7.191 0-2.717-1.058-5.271-2.979-7.192-1.92-1.921-4.475-2.979-7.191-2.979-2.717 0-5.271 1.058-7.192 2.979s-2.978 4.475-2.978 7.192c0 2.716 1.057 5.27 2.978 7.191s4.475 2.979 7.192 2.979" clip-path="url(#clipPath4234)" fill="#75c92b"/>
  <path transform="matrix(.35278 0 0 -.35278 -6.528 7.0272)" d="m0 0h-0.025l-1.179-3.941h2.268zm2.015-7.362-0.583 2.091h-2.991l-0.633-2.091h-1.711l2.953 8.844h1.926l2.851-8.844z" clip-path="url(#clipPath4236)" fill="#fff"/>
  <path transform="matrix(.35278 0 0 -.35278 -4.7264 9.6244)" d="m0 0v1.369c1.913 1.976 3.282 3.788 3.282 4.929 0 0.785-0.431 1.28-1.242 1.28-0.646 0-1.267-0.317-1.736-0.685l-0.139 1.546c0.696 0.33 1.495 0.532 2.382 0.532 1.47 0 2.483-0.899 2.483-2.369 0-1.622-1.723-3.827-3.168-5.271h3.27v-1.331z" clip-path="url(#clipPath4238)" fill="#fff"/>
 </g>
</svg>
