<?xml version="1.0" encoding="UTF-8"?>
<svg width="32" height="32" version="1.1" viewBox="0 0 8.4667 8.4667" xmlns="http://www.w3.org/2000/svg">
 <defs>
  <clipPath id="clipPath4242">
   <path transform="translate(-464.83 -1821.4)" d="m0 2592h2592v-2592h-2592z"/>
  </clipPath>
  <clipPath id="clipPath4244">
   <path transform="translate(-471.9 -1813.9)" d="m0 2592h2592v-2592h-2592z"/>
  </clipPath>
  <clipPath id="clipPath4240">
   <path transform="translate(-468.1 -1830)" d="m0 2592h2592v-2592h-2592z"/>
  </clipPath>
 </defs>
 <g transform="translate(10.117 -3.3766)">
  <path transform="matrix(.35278 0 0 -.35278 -5.8836 3.4396)" d="m0 0c-6.529 0-11.822-5.292-11.822-11.821s5.293-11.822 11.822-11.822 11.821 5.293 11.821 11.822-5.292 11.821-11.821 11.821m0-1.651c2.716 0 5.271-1.058 7.191-2.979 1.921-1.921 2.979-4.474 2.979-7.191s-1.058-5.271-2.979-7.192c-1.92-1.921-4.475-2.979-7.191-2.979-2.717 0-5.271 1.058-7.192 2.979s-2.978 4.475-2.978 7.192 1.057 5.27 2.978 7.191 4.475 2.979 7.192 2.979" clip-path="url(#clipPath4240)" fill="#75c92b"/>
  <path transform="matrix(.35278 0 0 -.35278 -7.037 6.4979)" d="m0 0h-0.025l-1.179-3.941h2.268zm2.015-7.362-0.583 2.091h-2.991l-0.633-2.091h-1.711l2.952 8.844h1.927l2.851-8.844z" clip-path="url(#clipPath4242)" fill="#fff"/>
  <path transform="matrix(.35278 0 0 -.35278 -4.5426 9.1398)" d="m0 0c-0.988 0-1.686 0.203-2.104 0.367l0.102 1.445c0.456-0.228 1.064-0.469 1.774-0.469 0.887 0 1.596 0.545 1.596 1.407 0 0.823-0.57 1.292-1.558 1.292h-0.761v1.254h0.482c1.09 0 1.812 0.419 1.812 1.255 0 0.785-0.621 1.204-1.457 1.204-0.532 0-1.153-0.178-1.647-0.443l-0.114 1.368c0.671 0.266 1.394 0.418 2.103 0.418 1.533 0 2.813-0.57 2.813-2.243 0-1.216-0.849-1.926-1.711-2.053v-0.025c0.862-0.114 1.8-0.748 1.8-2.116 0-1.597-1.166-2.661-3.13-2.661" clip-path="url(#clipPath4244)" fill="#fff"/>
 </g>
</svg>
