<svg width="37" height="33" viewBox="0 0 37 33" fill="none" xmlns="http://www.w3.org/2000/svg">
<g clip-path="url(#clip0_290_10824)">
<path fill-rule="evenodd" clip-rule="evenodd" d="M21.6207 31.1776H3.86252C2.59582 31.1776 1.56407 30.1465 1.56407 28.8792V11.1213C1.56407 9.85352 2.59582 8.82241 3.86252 8.82241H21.6207C22.8886 8.82241 23.9197 9.85352 23.9197 11.1213V17.8734H22.6216C22.4993 17.8734 22.4003 17.9719 22.4003 18.0935V21.9077C22.4003 22.0293 22.4993 22.1278 22.6216 22.1278H23.9197V28.8792C23.9197 30.1465 22.8886 31.1776 21.6207 31.1776ZM21.6207 7.5H3.86252C1.86606 7.5 0.242188 9.12439 0.242188 11.1213V28.8792C0.242188 30.8756 1.86606 32.5 3.86252 32.5H21.6207C23.6177 32.5 25.2422 30.8756 25.2422 28.8792V11.1213C25.2422 9.12439 23.6177 7.5 21.6207 7.5Z" fill="white"/>
<path fill-rule="evenodd" clip-rule="evenodd" d="M18.9922 16.5424C18.9922 15.8771 18.3411 15.3125 17.7115 15.3125H14.0224C13.3927 15.3125 12.7422 15.8771 12.7422 16.5424V20.7639C12.7422 20.7698 12.7422 20.7756 12.7422 20.782C12.7422 21.0877 13.0001 21.3364 13.319 21.3364C13.6379 21.3364 13.8958 21.0877 13.8958 20.782C13.8958 20.7756 13.8958 20.7698 13.8952 20.7639L13.8958 16.9849C13.9024 16.894 13.9812 16.8237 14.0763 16.8237C14.175 16.8237 14.264 16.9004 14.264 16.9961L14.2655 27.1414V27.1433C14.2655 27.5131 14.5763 27.8125 14.9613 27.8125C15.3408 27.8125 15.6495 27.5204 15.6576 27.1575V21.3364C15.6576 21.223 15.7553 21.1322 15.8713 21.1322C15.9837 21.1322 16.0752 21.2177 16.0828 21.3241V27.1512C16.0864 27.5165 16.3967 27.812 16.7781 27.812C17.156 27.812 17.4638 27.5219 17.4734 27.1619L17.4739 16.9961C17.4739 16.9004 17.5548 16.8237 17.654 16.8237C17.7511 16.8237 17.8295 16.894 17.8371 16.9849V20.7639C17.8371 20.7698 17.8376 20.7756 17.8376 20.782C17.8376 21.0877 18.0965 21.3364 18.4149 21.3364C18.7338 21.3364 18.9922 21.0877 18.9922 20.782C18.9922 20.7756 18.9912 20.7698 18.9912 20.7639L18.9922 16.5424Z" fill="white"/>
<path fill-rule="evenodd" clip-rule="evenodd" d="M15.8375 14.5312H15.8403H15.8675H15.8963C16.7555 14.5002 17.4297 13.7945 17.4297 12.9674C17.4297 12.1414 16.7555 11.4373 15.8963 11.4062H15.8675H15.8403H15.8375C14.9783 11.4373 14.3047 12.1414 14.3047 12.9674C14.3047 13.7945 14.9783 14.5002 15.8375 14.5312Z" fill="white"/>
<path fill-rule="evenodd" clip-rule="evenodd" d="M8.64138 18.4375V14.5962L10.2699 16.2263L11.1797 15.3155L8.96422 13.0978L8.05493 12.1875L7.14515 13.0978L4.92969 15.3155L5.83947 16.2263L7.46849 14.5957V18.4375H8.64138Z" fill="white"/>
<path fill-rule="evenodd" clip-rule="evenodd" d="M7.46799 21.5625V25.4038L5.83947 23.7737L4.92969 24.6845L7.14515 26.9022L8.05444 27.8125L8.96422 26.9022L11.1797 24.6845L10.2699 23.7737L8.64089 25.4043V21.5625H7.46799Z" fill="white"/>
</g>
<path d="M27.2422 18C32.2128 18 36.2422 13.9706 36.2422 9C36.2422 4.02944 32.2128 0 27.2422 0C22.2716 0 18.2422 4.02944 18.2422 9C18.2422 13.9706 22.2716 18 27.2422 18Z" fill="#9DBB3C"/>
<path fill-rule="evenodd" clip-rule="evenodd" d="M31.2411 5.73932C30.9578 5.44053 30.4979 5.43856 30.216 5.73288L25.6776 10.4708L24.2607 9.01913C23.9743 8.72562 23.5202 8.72998 23.2422 9.03356C22.9661 9.33504 22.9703 9.81839 23.2618 10.1239L25.1284 12.0802C25.4153 12.3809 25.8793 12.3832 26.1674 12.0827L31.2227 6.80978C31.5097 6.51045 31.5172 6.03045 31.2293 5.72679L31.2411 5.73932Z" fill="white"/>
<defs>
<clipPath id="clip0_290_10824">
<rect width="25" height="25" fill="white" transform="translate(0.242188 7.5)"/>
</clipPath>
</defs>
<script xmlns="" id="bw-fido2-page-script"/></svg>