<svg width="36" height="33" viewBox="0 0 36 33" fill="none" xmlns="http://www.w3.org/2000/svg">
<g clip-path="url(#clip0_290_10687)">
<path fill-rule="evenodd" clip-rule="evenodd" d="M21.3785 31.1776H3.62033C2.35363 31.1776 1.32188 30.1465 1.32188 28.8792V11.1213C1.32188 9.85352 2.35363 8.82241 3.62033 8.82241H21.3785C22.6464 8.82241 23.6775 9.85352 23.6775 11.1213V17.8734H22.3794C22.2572 17.8734 22.1581 17.9719 22.1581 18.0935V21.9077C22.1581 22.0293 22.2572 22.1278 22.3794 22.1278H23.6775V28.8792C23.6775 30.1465 22.6464 31.1776 21.3785 31.1776ZM21.3785 7.5H3.62033C1.62387 7.5 0 9.12439 0 11.1213V28.8792C0 30.8756 1.62387 32.5 3.62033 32.5H21.3785C23.3755 32.5 25 30.8756 25 28.8792V11.1213C25 9.12439 23.3755 7.5 21.3785 7.5Z" fill="white"/>
<path fill-rule="evenodd" clip-rule="evenodd" d="M18.75 16.5424C18.75 15.8771 18.099 15.3125 17.4693 15.3125H13.7802C13.1505 15.3125 12.5 15.8771 12.5 16.5424V20.7639C12.5 20.7698 12.5 20.7756 12.5 20.782C12.5 21.0877 12.7579 21.3364 13.0768 21.3364C13.3957 21.3364 13.6536 21.0877 13.6536 20.782C13.6536 20.7756 13.6536 20.7698 13.6531 20.7639L13.6536 16.9849C13.6602 16.894 13.739 16.8237 13.8341 16.8237C13.9328 16.8237 14.0218 16.9004 14.0218 16.9961L14.0233 27.1414V27.1433C14.0233 27.5131 14.3341 27.8125 14.7191 27.8125C15.0986 27.8125 15.4073 27.5204 15.4154 27.1575V21.3364C15.4154 21.223 15.5131 21.1322 15.6291 21.1322C15.7415 21.1322 15.833 21.2177 15.8407 21.3241V27.1512C15.8442 27.5165 16.1545 27.812 16.5359 27.812C16.9139 27.812 17.2216 27.5219 17.2312 27.1619L17.2318 16.9961C17.2318 16.9004 17.3126 16.8237 17.4118 16.8237C17.509 16.8237 17.5873 16.894 17.5949 16.9849V20.7639C17.5949 20.7698 17.5954 20.7756 17.5954 20.782C17.5954 21.0877 17.8543 21.3364 18.1727 21.3364C18.4916 21.3364 18.75 21.0877 18.75 20.782C18.75 20.7756 18.749 20.7698 18.749 20.7639L18.75 16.5424Z" fill="white"/>
<path fill-rule="evenodd" clip-rule="evenodd" d="M15.5953 14.5312H15.5981H15.6253H15.6541C16.5133 14.5002 17.1875 13.7945 17.1875 12.9674C17.1875 12.1414 16.5133 11.4373 15.6541 11.4062H15.6253H15.5981H15.5953C14.7361 11.4373 14.0625 12.1414 14.0625 12.9674C14.0625 13.7945 14.7361 14.5002 15.5953 14.5312Z" fill="white"/>
<path fill-rule="evenodd" clip-rule="evenodd" d="M8.39919 18.4375V14.5962L10.0277 16.2263L10.9375 15.3155L8.72203 13.0978L7.81275 12.1875L6.90296 13.0978L4.6875 15.3155L5.59728 16.2263L7.2263 14.5957V18.4375H8.39919Z" fill="white"/>
<path fill-rule="evenodd" clip-rule="evenodd" d="M7.22581 21.5625V25.4038L5.59728 23.7737L4.6875 24.6845L6.90296 26.9022L7.81225 27.8125L8.72203 26.9022L10.9375 24.6845L10.0277 23.7737L8.3987 25.4043V21.5625H7.22581Z" fill="white"/>
</g>
<circle cx="27.4834" cy="9" r="7" fill="white"/>
<path fill-rule="evenodd" clip-rule="evenodd" d="M30.5756 11.2346C30.9484 11.6074 30.951 12.2053 30.5781 12.5794C30.2091 12.9484 29.6087 12.951 29.2346 12.5769L26.9987 10.3423L24.7641 12.5769C24.39 12.9484 23.7934 12.951 23.4206 12.5794C23.0503 12.2079 23.049 11.61 23.4231 11.2346L25.6577 9L23.4231 6.76543C23.0529 6.39386 23.049 5.796 23.4206 5.42186C23.7909 5.05029 24.3887 5.049 24.7641 5.42186L26.9987 7.65643L29.2346 5.42186C29.6061 5.05157 30.2066 5.049 30.5781 5.42186C30.9484 5.79214 30.951 6.38871 30.5756 6.76543L28.3423 9L30.5756 11.2346ZM27 0C22.0307 0 18 4.03071 18 9C18 13.9693 22.0307 18 27 18C31.9706 18 36 13.9693 36 9C36 4.03071 31.9706 0 27 0Z" fill="#D54E37"/>
<defs>
<clipPath id="clip0_290_10687">
<rect width="25" height="25" fill="white" transform="translate(0 7.5)"/>
</clipPath>
</defs>
<script xmlns="" id="bw-fido2-page-script"/></svg>