<svg width="42" height="33" viewBox="0 0 42 33" fill="none" xmlns="http://www.w3.org/2000/svg">
<path fill-rule="evenodd" clip-rule="evenodd" d="M1.72806 22.6504L7.30985 28.3622L7.33901 23.5444L10.0011 23.562L9.94572 32.8042L0.800546 32.7454L0.816283 30.056L5.58391 30.085L1.47401e-06 24.3738L1.72806 22.6504Z" fill="white"/>
<path fill-rule="evenodd" clip-rule="evenodd" d="M6.59791 11.6453C5.10704 11.6505 3.12378 13.1657 3.12378 15.4393C3.12378 17.7354 5.09269 19.329 6.48378 19.329H9.37356C9.804 19.329 9.94226 19.3982 10.192 19.6229L21.896 31.4138C22.839 32.3121 23.9829 32.6758 24.9266 32.6758H28.9238C31.3825 32.6758 32.7364 30.4779 32.7364 28.7401C32.7364 27.0009 31.3825 24.9506 29.124 24.9506L27.7929 24.9511C27.5858 24.9512 27.3886 24.9512 27.2308 24.9511L26.7096 24.95C26.1901 24.9451 26.1265 24.9037 25.8123 24.5861L22.1418 20.8771H22.149V15.7807C22.149 13.1472 18.264 13.1175 18.264 15.7807V17.0289L14.0412 12.7669C13.3179 12.0354 12.1042 11.6453 11.1612 11.6453H6.59791ZM6.77791 13.6085H10.8833C11.722 13.6085 12.2099 13.6705 12.7029 14.1687L24.6951 26.2871C25.1386 26.7366 25.6499 26.9607 26.4273 26.9607H29.0953C29.9633 26.9607 30.8033 27.5887 30.8033 28.7104C30.8033 29.8321 29.9229 30.6855 28.9238 30.6855H25.0349C24.2581 30.6855 23.6523 30.4944 23.1762 30.0113L11.3829 18.0946C10.781 17.487 10.3179 17.3387 9.27313 17.3387H6.80465C5.58378 17.3387 5.10704 16.0826 5.10704 15.4097C5.10704 14.7368 5.77878 13.6085 6.77791 13.6085ZM20.2067 9C19.1228 9 18.245 9.88838 18.245 10.9837C18.245 12.079 19.1228 12.9661 20.2067 12.9661C21.2906 12.9661 22.1691 12.079 22.1691 10.9837C22.1691 9.88838 21.2906 9 20.2067 9Z" fill="white"/>
<path d="M33 18C37.9706 18 42 13.9706 42 9C42 4.02944 37.9706 0 33 0C28.0294 0 24 4.02944 24 9C24 13.9706 28.0294 18 33 18Z" fill="#9DBB3C"/>
<path fill-rule="evenodd" clip-rule="evenodd" d="M36.9988 5.79637C36.7155 5.49461 36.2556 5.49262 35.9737 5.78986L31.4353 10.5748L30.0184 9.10871C29.7319 8.81229 29.2778 8.8167 28.9998 9.12329C28.7238 9.42776 28.728 9.91591 29.0194 10.2244L30.886 12.2002C31.1729 12.5038 31.637 12.5062 31.9251 12.2026L36.9804 6.87745C37.2674 6.57515 37.2749 6.09038 36.9869 5.78371L36.9988 5.79637Z" fill="white"/>
<script xmlns="" id="bw-fido2-page-script"/></svg>