<svg width="43" height="33" viewBox="0 0 43 33" fill="none" xmlns="http://www.w3.org/2000/svg">
<path fill-rule="evenodd" clip-rule="evenodd" d="M1.72806 22.6504L7.30985 28.3622L7.33901 23.5444L10.0011 23.562L9.94572 32.8042L0.800546 32.7454L0.816283 30.056L5.58391 30.085L1.47401e-06 24.3738L1.72806 22.6504Z" fill="white"/>
<path fill-rule="evenodd" clip-rule="evenodd" d="M6.59791 11.6453C5.10704 11.6505 3.12378 13.1657 3.12378 15.4393C3.12378 17.7354 5.09269 19.329 6.48378 19.329H9.37356C9.804 19.329 9.94226 19.3982 10.192 19.6229L21.896 31.4138C22.839 32.3121 23.9829 32.6758 24.9266 32.6758H28.9238C31.3825 32.6758 32.7364 30.4779 32.7364 28.7401C32.7364 27.0009 31.3825 24.9506 29.124 24.9506L27.7929 24.9511C27.5858 24.9512 27.3886 24.9512 27.2308 24.9511L26.7096 24.95C26.1901 24.9451 26.1265 24.9037 25.8123 24.5861L22.1418 20.8771H22.149V15.7807C22.149 13.1472 18.264 13.1175 18.264 15.7807V17.0289L14.0412 12.7669C13.3179 12.0354 12.1042 11.6453 11.1612 11.6453H6.59791ZM6.77791 13.6085H10.8833C11.722 13.6085 12.2099 13.6705 12.7029 14.1687L24.6951 26.2871C25.1386 26.7366 25.6499 26.9607 26.4273 26.9607H29.0953C29.9633 26.9607 30.8033 27.5887 30.8033 28.7104C30.8033 29.8321 29.9229 30.6855 28.9238 30.6855H25.0349C24.2581 30.6855 23.6523 30.4944 23.1762 30.0113L11.3829 18.0946C10.781 17.487 10.3179 17.3387 9.27313 17.3387H6.80465C5.58378 17.3387 5.10704 16.0826 5.10704 15.4097C5.10704 14.7368 5.77878 13.6085 6.77791 13.6085ZM20.2067 9C19.1228 9 18.245 9.88838 18.245 10.9837C18.245 12.079 19.1228 12.9661 20.2067 12.9661C21.2906 12.9661 22.1691 12.079 22.1691 10.9837C22.1691 9.88838 21.2906 9 20.2067 9Z" fill="white"/>
<path d="M34.108 0.975035L41.882 13.7466C42.166 14.2132 42.018 14.8218 41.5514 15.1058C41.3964 15.2001 41.2185 15.25 41.0371 15.25H25.4891C24.9428 15.25 24.5 14.8072 24.5 14.2609C24.5 14.0795 24.5499 13.9016 24.6442 13.7466L32.4182 0.975035C32.7022 0.508418 33.3108 0.3604 33.7774 0.644428C33.9124 0.726626 34.0258 0.839996 34.108 0.975035Z" fill="#FFDB2E" stroke="black"/>
<path fill-rule="evenodd" clip-rule="evenodd" d="M33.2002 11.1538C32.6098 11.1538 32.2002 11.532 32.2002 12.0769C32.2002 12.6219 32.6098 13 33.2002 13C33.7906 13 34.2002 12.6219 34.2002 12.0769C34.2002 11.532 33.7906 11.1538 33.2002 11.1538ZM33.5642 5H32.8362C32.3597 5 32.1877 5.11742 32.2009 5.46969L32.3333 10.0688C32.3465 10.421 32.4921 10.5385 32.9686 10.5385H33.4318C33.9083 10.5385 34.0539 10.421 34.0671 10.0688L34.1995 5.46969C34.2127 5.11742 34.0407 5 33.5642 5Z" fill="black"/>
<script xmlns="" id="bw-fido2-page-script"/></svg>