<svg width="42" height="33" viewBox="0 0 42 33" fill="none" xmlns="http://www.w3.org/2000/svg">
<path fill-rule="evenodd" clip-rule="evenodd" d="M26.1385 11.6453C27.6293 11.6505 29.6126 13.1657 29.6126 15.4393C29.6126 17.7354 27.6437 19.329 26.2526 19.329H23.3628C22.9324 19.329 22.7941 19.3982 22.5443 19.6229L10.8404 31.4138C9.89739 32.3121 8.75348 32.6758 7.80978 32.6758H3.81261C1.35391 32.6758 0 30.4779 0 28.7401C0 27.0009 1.35391 24.9506 3.61239 24.9506L4.94348 24.9511C5.15056 24.9512 5.34779 24.9512 5.5056 24.9511L6.02677 24.95C6.5463 24.9451 6.6099 24.9037 6.92413 24.5861L10.5946 20.8771H10.5874V15.7807C10.5874 13.1472 14.4724 13.1175 14.4724 15.7807V17.0289L18.6952 12.7669C19.4185 12.0354 20.6322 11.6453 21.5752 11.6453H26.1385ZM25.9585 13.6085H21.853C21.0143 13.6085 20.5265 13.6705 20.0335 14.1687L8.0413 26.2871C7.59783 26.7366 7.08652 26.9607 6.30913 26.9607H3.64109C2.77304 26.9607 1.93304 27.5887 1.93304 28.7104C1.93304 29.8321 2.81348 30.6855 3.81261 30.6855H7.70152C8.47826 30.6855 9.08413 30.4944 9.56022 30.0113L21.3535 18.0946C21.9554 17.487 22.4185 17.3387 23.4633 17.3387H25.9317C27.1526 17.3387 27.6293 16.0826 27.6293 15.4097C27.6293 14.7368 26.9576 13.6085 25.9585 13.6085ZM12.5297 9C13.6136 9 14.4914 9.88838 14.4914 10.9837C14.4914 12.079 13.6136 12.9661 12.5297 12.9661C11.4458 12.9661 10.5673 12.079 10.5673 10.9837C10.5673 9.88838 11.4458 9 12.5297 9Z" fill="white"/>
<circle cx="33.4834" cy="9" r="7" fill="white"/>
<path fill-rule="evenodd" clip-rule="evenodd" d="M36.5756 11.2346C36.9484 11.6074 36.951 12.2053 36.5781 12.5794C36.2091 12.9484 35.6087 12.951 35.2346 12.5769L32.9987 10.3423L30.7641 12.5769C30.39 12.9484 29.7934 12.951 29.4206 12.5794C29.0503 12.2079 29.049 11.61 29.4231 11.2346L31.6577 9L29.4231 6.76543C29.0529 6.39386 29.049 5.796 29.4206 5.42186C29.7909 5.05029 30.3887 5.049 30.7641 5.42186L32.9987 7.65643L35.2346 5.42186C35.6061 5.05157 36.2066 5.049 36.5781 5.42186C36.9484 5.79214 36.951 6.38871 36.5756 6.76543L34.3423 9L36.5756 11.2346ZM33 0C28.0307 0 24 4.03071 24 9C24 13.9693 28.0307 18 33 18C37.9706 18 42 13.9693 42 9C42 4.03071 37.9706 0 33 0Z" fill="#D54E37"/>
<script xmlns="" id="bw-fido2-page-script"/></svg>