<svg width="42" height="33" viewBox="0 0 42 33" fill="none" xmlns="http://www.w3.org/2000/svg">
<path fill-rule="evenodd" clip-rule="evenodd" d="M24.4656 32.8041L30.0474 27.0922L30.0765 31.9101L32.7386 31.8925L32.6832 22.6503L23.5381 22.7091L23.5538 25.3985L28.3214 25.3695L22.7375 31.0806L24.4656 32.8041Z" fill="white"/>
<path fill-rule="evenodd" clip-rule="evenodd" d="M26.1385 11.6453C27.6293 11.6505 29.6126 13.1657 29.6126 15.4393C29.6126 17.7354 27.6437 19.329 26.2526 19.329H23.3628C22.9324 19.329 22.7941 19.3982 22.5443 19.6229L10.8404 31.4138C9.89739 32.3121 8.75348 32.6758 7.80978 32.6758H3.81261C1.35391 32.6758 0 30.4779 0 28.7401C0 27.0009 1.35391 24.9506 3.61239 24.9506L4.94348 24.9511C5.15056 24.9512 5.34779 24.9512 5.5056 24.9511L6.02677 24.95C6.5463 24.9451 6.6099 24.9037 6.92413 24.5861L10.5946 20.8771H10.5874V15.7807C10.5874 13.1472 14.4724 13.1175 14.4724 15.7807V17.0289L18.6952 12.7669C19.4185 12.0354 20.6322 11.6453 21.5752 11.6453H26.1385ZM25.9585 13.6085H21.853C21.0143 13.6085 20.5265 13.6705 20.0335 14.1687L8.0413 26.2871C7.59783 26.7366 7.08652 26.9607 6.30913 26.9607H3.64109C2.77304 26.9607 1.93304 27.5887 1.93304 28.7104C1.93304 29.8321 2.81348 30.6855 3.81261 30.6855H7.70152C8.47826 30.6855 9.08413 30.4944 9.56022 30.0113L21.3535 18.0946C21.9554 17.487 22.4185 17.3387 23.4633 17.3387H25.9317C27.1526 17.3387 27.6293 16.0826 27.6293 15.4097C27.6293 14.7368 26.9576 13.6085 25.9585 13.6085ZM12.5297 9C13.6136 9 14.4914 9.88838 14.4914 10.9837C14.4914 12.079 13.6136 12.9661 12.5297 12.9661C11.4458 12.9661 10.5673 12.079 10.5673 10.9837C10.5673 9.88838 11.4458 9 12.5297 9Z" fill="white"/>
<path d="M33.108 0.975035L40.882 13.7466C41.166 14.2132 41.018 14.8218 40.5514 15.1058C40.3964 15.2001 40.2185 15.25 40.0371 15.25H24.4891C23.9428 15.25 23.5 14.8072 23.5 14.2609C23.5 14.0795 23.5499 13.9016 23.6442 13.7466L31.4182 0.975035C31.7022 0.508418 32.3108 0.3604 32.7774 0.644428C32.9124 0.726626 33.0258 0.839996 33.108 0.975035Z" fill="#FFDB2E" stroke="black"/>
<path fill-rule="evenodd" clip-rule="evenodd" d="M32.2002 11.1538C31.6098 11.1538 31.2002 11.532 31.2002 12.0769C31.2002 12.6219 31.6098 13 32.2002 13C32.7906 13 33.2002 12.6219 33.2002 12.0769C33.2002 11.532 32.7906 11.1538 32.2002 11.1538ZM32.5642 5H31.8362C31.3597 5 31.1877 5.11742 31.2009 5.46969L31.3333 10.0688C31.3465 10.421 31.4921 10.5385 31.9686 10.5385H32.4318C32.9083 10.5385 33.0539 10.421 33.0671 10.0688L33.1995 5.46969C33.2127 5.11742 33.0407 5 32.5642 5Z" fill="black"/>
<script xmlns="" id="bw-fido2-page-script"/></svg>