<svg xmlns="http://www.w3.org/2000/svg" viewBox="0 0 226.8 226.8" style="enable-background:new 0 0 226.8 226.8" xml:space="preserve">
    <defs>
        <filter id="a" filterUnits="userSpaceOnUse" x="0" y="0" width="226.8" height="226.8">
            <feColorMatrix values="1 0 0 0 0 0 1 0 0 0 0 0 1 0 0 0 0 0 1 0"/>
        </filter>
    </defs>
    <mask maskUnits="userSpaceOnUse" x="0" y="0" width="226.8" height="226.8" id="b">
        <g style="filter:url(#a)">
            <path d="M0 0h226.8v226.8H0V0z" style="fill-rule:evenodd;clip-rule:evenodd;fill:#fff"/>
        </g>
    </mask>
    <path d="M217.4 226.8H9.5c-5.2 0-9.5-4.2-9.5-9.5V9.5C0 4.2 4.2 0 9.5 0h207.9c5.2 0 9.5 4.2 9.5 9.5v207.9c-.1 5.2-4.3 9.4-9.5 9.4" style="mask:url(#b);fill-rule:evenodd;clip-rule:evenodd;fill:#009f7b"/>
    <path d="M151.3 145.5c-.5-5.8 4.4-10.7 10.2-10.2 4.6.4 8.3 4.1 8.6 8.7.5 5.8-4.4 10.7-10.2 10.2-4.6-.4-8.3-4.1-8.6-8.7zm-96.1-26.8 5.1-48.8c.8-7.2 6.8-12.7 14.1-12.7h78.3c7.2 0 13.3 5.5 14.1 12.7l5.1 48.8H55.2zm1.8 26.8c-.5-5.8 4.4-10.7 10.2-10.2 4.6.4 8.3 4.1 8.6 8.7.5 5.8-4.4 10.7-10.2 10.2-4.5-.4-8.3-4.1-8.6-8.7zm126.9-25.1-6.5-61.5c-1.5-14.4-13.7-25.4-28.1-25.4H77.7c-14.5 0-26.6 11-28.1 25.4l-6.5 61.5c-.2 2-.3 4-.3 5.9v42c0 2.6 2.1 4.7 4.7 4.7h4.7v16.6c0 2.6 2.1 4.7 4.7 4.7h14.2c2.6 0 4.7-2.1 4.7-4.7V173h75.4v16.6c0 2.6 2.1 4.7 4.7 4.7h14.2c2.6 0 4.7-2.1 4.7-4.7V173h4.7c2.6 0 4.7-2.1 4.7-4.7v-42c0-1.9-.1-3.9-.3-5.9z" style="fill-rule:evenodd;clip-rule:evenodd;fill:#fffffe"/>
</svg>
