<svg xmlns="http://www.w3.org/2000/svg" viewBox="0 0 253.2 253.2">
    <path d="M242.6 253.2H10.5c-5.8 0-10.5-4.7-10.5-10.5V10.5C0 4.7 4.7 0 10.5 0h232.1c5.8 0 10.5 4.7 10.5 10.5v232.1c.1 5.9-4.6 10.6-10.5 10.6" style="fill:#009ee0"/>
    <path d="M126.7 197.6c-39.3 0-71.1-31.9-71.1-71.1 0-35 25.2-64 58.4-70v85.2l-35.1-35.8L60.1 125l66.6 67.3 66.9-66.9-19.4-19.4-35.5 35.5v-85c33.6 5.7 59.1 34.9 59.1 70.1.1 39.2-31.8 71-71.1 71m0-166c-52.4 0-94.9 42.5-94.9 94.9s42.5 94.9 94.9 94.9c52.4 0 94.9-42.5 94.9-94.9s-42.5-94.9-94.9-94.9" style="fill:#fffffe"/>
</svg>
