<svg version="1.1" id="Layer_1" xmlns="http://www.w3.org/2000/svg" x="0" y="0" viewBox="0 0 241.1 240.8" style="enable-background:new 0 0 241.1 240.8" xml:space="preserve">
    <style>
        .st6{fill:none}.st7{fill:#034638}.st8{fill:#84bd00}
    </style>
    <path d="M230.8 240.8H10c-5.5 0-10-4.5-10-10V10C0 4.5 4.5 0 10 0h220.8c5.5 0 10 4.5 10 10v220.8c0 5.5-4.5 10-10 10" style="fill-rule:evenodd;clip-rule:evenodd;fill:#fff"/>
    <path class="st6" d="M134.2 78.4h-31.7v38.2h31.7c9.3 0 17-8.3 17-19.1s-7.7-19.1-17-19.1z"/>
    <path class="st7" d="M68.5 162.4h33.9V195H68.5zM157.7 140.5c16.3-8.3 27.4-24.8 27.4-43.1 0-28.2-22.7-50.9-50.9-50.9H68.5v94h53.1l31.3 54.5h36.5l-31.7-54.5m-23.5-23.9h-31.7V78.4h31.7c9.3 0 17 8.3 17 19.1s-7.7 19.1-17 19.1z"/>
    <path class="st6" d="M368.9 88.6h-31.7v38.2h31.7c9.3 0 17-8.3 17-19.1s-7.6-19.1-17-19.1z"/>
    <path class="st8" d="M240.9 140.5h-83.1l12.6 21.9h70.5zM121.6 140.5H.4v21.9h133.7z"/>
    <path class="st6" d="M68.5 195h33.9v32.6H68.5zM68.5 227.7h33.9v32.6H68.5zM240.9 135.1h33.9v32.6h-33.9zM274.8 135.1h33.9v32.6h-33.9zM68.5 13.9h33.9v32.6H68.5z"/>
    <path class="st6" d="M68.5-18.7h33.9v32.6H68.5zM-33.8 136.3H.1v32.6h-33.9zM-67.8 136.3h33.9v32.6h-33.9z"/>
</svg>
