<svg version="1.1" id="Layer_1" xmlns="http://www.w3.org/2000/svg" x="0" y="0" viewBox="0 0 238.8 238.8" style="enable-background:new 0 0 238.8 238.8" xml:space="preserve">
    <style>
        .st1{fill:#fff}
    </style>
    <path d="M227.6 239H9.4c-5.5 0-9.9-4.4-9.9-9.9V10.9C-.5 5.4 3.9 1 9.4 1h218.2c5.5 0 9.9 4.4 9.9 9.9v218.2c0 5.5-4.4 9.9-9.9 9.9z" style="fill:#c8017e"/>
    <path class="st1" d="m179.3 142.8-60.8-60.7-60.8 60.7 17.9 17.9 31-31.1v65.3l23.8.1v-65.4l31 31.1z"/>
    <path class="st1" d="M188.6 172.9c5.6-6.2 7.8-17.2 7.1-24.4l-5.1-50.8c-.5-5.7-3.3-10.9-7.6-14.3l-1.7-20.3c-.6-5.8-3.8-11-8.8-14.1-1.1-.7-2.1-1.3-2.2-1.4h-.1c-5.6-3.6-12.6-6.6-20.6-9-9.9-2.9-19.4-4.3-25.7-4.9-3.6-.4-7.2-.4-10.8 0-5.8.6-14.8 1.8-24.2 4.5-8.8 2.5-16.3 5.6-22.2 9.5L64.5 49c-4.9 3.2-8 8.3-8.7 14.1L54 83.4c-4.3 3.4-7.1 8.7-7.6 14.3l-5.1 50.8c-.7 7.2 1.5 18.2 7.1 24.4 4.5 5 12.1 10.3 20.1 10.8l-23 23h15.8l35.5-35.5H71c-4.6 0-10.7-2.8-13.8-6.3-3-3.3-4.6-9.4-4.1-15.3l5.1-50.8c.3-2.7 1.5-5 3.5-6.5 1.7-1.3 3.3-2.4 3.5-2.6 5.9-4.3 13.4-7.9 22.4-10.8 10.3-3.3 20.8-4.8 26.1-5.4 3.2-.4 6.4-.4 9.6 0 5.3.6 15.8 2.1 26.1 5.4 9 2.9 16.5 6.5 22.5 10.8.1.1.9.6 1.8 1.3l1.6 1.2c2 1.4 3.2 3.8 3.5 6.5l5.1 50.8c.5 5.9-1.1 12-4.1 15.3-3.2 3.5-9.3 6.3-13.8 6.3h-25.7l35.5 35.5h15.8l-23-23c7.9-.4 15.5-5.7 20-10.7zM153 67.8c-10.6-3.4-21.3-5.1-28.3-5.9-2-.2-4.1-.4-6.2-.4-2.1 0-4.1.1-6.2.4-7 .8-17.7 2.5-28.3 5.9-6.5 2.1-12.4 4.5-17.6 7.3l1.1-10.9c.2-2.2 1.5-4.2 3.3-5.4 1.1-.7 2-1.3 2.2-1.4 5-3.2 11.4-5.9 19.1-8.1 8.6-2.4 16.8-3.6 22.2-4.1 2.8-.3 5.7-.3 8.4 0 5.7.6 14.5 1.8 23.5 4.5 7 2.1 12.9 4.6 17.6 7.6l2.2 1.4c1.9 1.2 3.1 3.2 3.4 5.4l1 10.9c-5-2.6-11-5.1-17.4-7.2z"/>
</svg>
